<svg preserveAspectRatio="none" width="100%" height="100%" overflow="visible" style="display: block;" viewBox="0 0 11.0833 11.0833" fill="none" xmlns="http://www.w3.org/2000/svg">
<g id="Container">
<path id="Icon" d="M7.56761 8.18234L8.18234 7.56761L5.97913 5.36427V2.62498H5.10416V5.71888L7.56761 8.18234V8.18234M5.54262 11.0833C4.77616 11.0833 4.05572 10.9378 3.38131 10.647C2.7069 10.3561 2.12025 9.9613 1.62137 9.46264C1.12248 8.96398 0.727536 8.3776 0.436522 7.70348C0.145507 7.02937 0 6.30908 0 5.54262C0 4.77616 0.145443 4.05572 0.436328 3.38131C0.727213 2.7069 1.12199 2.12025 1.62065 1.62137C2.11931 1.12248 2.70569 0.727536 3.37981 0.436522C4.05392 0.145507 4.77421 0 5.54067 0C6.30713 0 7.02757 0.145443 7.70198 0.436328C8.3764 0.727213 8.96304 1.12199 9.46192 1.62065C9.96081 2.11931 10.3558 2.70569 10.6468 3.37981C10.9378 4.05392 11.0833 4.77421 11.0833 5.54067C11.0833 6.30713 10.9378 7.02757 10.647 7.70198C10.3561 8.37639 9.9613 8.96304 9.46264 9.46192C8.96398 9.96081 8.3776 10.3558 7.70348 10.6468C7.02937 10.9378 6.30908 11.0833 5.54262 11.0833V11.0833M5.54165 5.54165V5.54165V5.54165V5.54165V5.54165V5.54165V5.54165V5.54165V5.54165V5.54165M5.54165 10.2083C6.8347 10.2083 7.93574 9.7538 8.84477 8.84477C9.7538 7.93574 10.2083 6.8347 10.2083 5.54165C10.2083 4.24859 9.7538 3.14755 8.84477 2.23852C7.93574 1.32949 6.8347 0.874979 5.54165 0.874979C4.24859 0.874979 3.14755 1.32949 2.23852 2.23852C1.32949 3.14755 0.874979 4.24859 0.874979 5.54165C0.874979 6.8347 1.32949 7.93574 2.23852 8.84477C3.14755 9.7538 4.24859 10.2083 5.54165 10.2083V10.2083" fill="var(--fill-0, #5B5D74)"/>
</g>
</svg>
