<svg preserveAspectRatio="none" width="100%" height="100%" overflow="visible" style="display: block;" viewBox="0 0 15.1154 14.3654" fill="none" xmlns="http://www.w3.org/2000/svg">
<g id="Container">
<path id="Icon" d="M4.40771 12.2673L7.55771 10.3673L10.7077 12.2923L9.88271 8.69232L12.6577 6.29232L9.00771 5.96732L7.55771 2.56732L6.10771 5.94232L2.45771 6.26732L5.23271 8.69232L4.40771 12.2673V12.2673M2.8827 14.3654L4.12309 9.05194L0 5.48078L5.43078 5.00963L7.55771 0L9.68463 5.00963L15.1154 5.48078L10.9923 9.05194L12.2327 14.3654L7.55771 11.5443L2.8827 14.3654V14.3654M7.55771 7.69232V7.69232V7.69232V7.69232V7.69232V7.69232V7.69232V7.69232V7.69232V7.69232V7.69232V7.69232" fill="var(--fill-0, #D97706)"/>
</g>
</svg>
