<svg preserveAspectRatio="none" width="100%" height="100%" overflow="visible" style="display: block;" viewBox="0 0 13.9615 13.7595" fill="none" xmlns="http://www.w3.org/2000/svg">
<g id="Container">
<path id="Icon" d="M7.11055 13.7595C6.26436 13.6569 5.42397 13.4317 4.58938 13.084C3.75479 12.7363 3.0048 12.2338 2.33942 11.5766C1.67404 10.9194 1.12861 10.0879 0.703128 9.08215C0.277649 8.07639 0.0480804 6.8663 0.0144241 5.45188L0 4.774L0.663455 4.78843C1.24326 4.80285 1.88148 4.90934 2.57811 5.1079C3.27475 5.30646 3.89518 5.57786 4.43941 5.92209C4.54614 4.91441 4.83267 3.86778 5.29901 2.7822C5.76536 1.69663 6.32593 0.769228 6.98073 0C7.63553 0.769228 8.19611 1.69903 8.66245 2.78941C9.12879 3.8798 9.41532 4.92883 9.52205 5.93652C10.0519 5.60671 10.6603 5.33652 11.3473 5.12593C12.0343 4.91535 12.6797 4.80285 13.2836 4.78843L13.9615 4.774L13.947 5.46631C13.9278 6.7461 13.7379 7.86363 13.3773 8.81891C13.0168 9.77419 12.5302 10.5852 11.9177 11.2521C11.3052 11.9189 10.5894 12.4561 9.77016 12.8638C8.95093 13.2715 8.0644 13.5701 7.11055 13.7595V13.7595M7.08747 12.6115C6.94997 10.5365 6.33435 8.96773 5.2406 7.90523C4.14685 6.84273 2.78747 6.18648 1.16247 5.93648C1.29997 8.07398 1.93435 9.66773 3.0656 10.7177C4.19685 11.7677 5.53747 12.399 7.08747 12.6115V12.6115M6.98073 8.3394C7.15861 8.04516 7.38073 7.73915 7.64708 7.42136C7.91342 7.10357 8.17881 6.83362 8.44323 6.6115C8.42785 5.87016 8.29203 5.09636 8.03578 4.2901C7.77953 3.48385 7.42785 2.70476 6.98073 1.95284C6.53361 2.70476 6.18193 3.48385 5.92568 4.2901C5.66943 5.09636 5.53362 5.87016 5.51823 6.6115C5.78266 6.83362 6.04876 7.10357 6.31655 7.42136C6.58434 7.73915 6.80573 8.04516 6.98073 8.3394V8.3394M8.21245 12.3172C8.73745 12.1432 9.25957 11.9028 9.7788 11.5961C10.298 11.2894 10.7721 10.8855 11.2009 10.3845C11.6298 9.88359 11.9889 9.26916 12.2783 8.54128C12.5677 7.8134 12.7413 6.94513 12.799 5.93648C11.6048 6.11148 10.5495 6.52013 9.63312 7.16244C8.71677 7.80475 8.03552 8.60668 7.58937 9.56822C7.73937 9.96822 7.86509 10.3889 7.96653 10.8302C8.06797 11.2716 8.14995 11.7672 8.21245 12.3172V12.3172M6.98073 8.3394V8.3394V8.3394V8.3394V8.3394V8.3394V8.3394V8.3394V8.3394V8.3394M8.21245 12.3172V12.3172V12.3172V12.3172V12.3172V12.3172V12.3172V12.3172V12.3172V12.3172M7.08747 12.6115V12.6115V12.6115V12.6115V12.6115V12.6115M7.58937 9.56822V9.56822V9.56822V9.56822V9.56822V9.56822V9.56822V9.56822V9.56822V9.56822V9.56822V9.56822V9.56822M7.11055 13.7595V13.7595V13.7595V13.7595V13.7595V13.7595V13.7595V13.7595V13.7595V13.7595V13.7595V13.7595V13.7595V13.7595V13.7595V13.7595V13.7595V13.7595V13.7595V13.7595V13.7595" fill="var(--fill-0, #78716C)"/>
</g>
</svg>
