<svg preserveAspectRatio="none" width="100%" height="100%" overflow="visible" style="display: block;" viewBox="0 0 12.2272 12.2272" fill="none" xmlns="http://www.w3.org/2000/svg">
<g id="Container">
<path id="Icon" d="M6.11172 9.31054C6.3442 9.31054 6.53969 9.2319 6.69821 9.07464C6.85673 8.91738 6.93599 8.72251 6.93599 8.49003C6.93599 8.25755 6.85736 8.06068 6.70009 7.89942C6.54283 7.73815 6.34796 7.65752 6.11548 7.65752C5.883 7.65752 5.68751 7.73815 5.52899 7.89942C5.37047 8.06068 5.29122 8.25755 5.29122 8.49003C5.29122 8.72251 5.36985 8.91738 5.52711 9.07464C5.68437 9.2319 5.87924 9.31054 6.11172 9.31054V9.31054M5.34067 6.71342H6.88653V3.02383H5.34067V6.71342V6.71342M6.1136 12.2272C5.26269 12.2272 4.46593 12.067 3.7233 11.7465C2.98068 11.4261 2.33469 10.9912 1.78535 10.4418C1.23601 9.89251 0.80112 9.24653 0.480672 8.5039C0.160224 7.76128 0 6.96451 0 6.1136C0 5.26269 0.160224 4.46593 0.480672 3.7233C0.80112 2.98068 1.23601 2.33469 1.78535 1.78535C2.33469 1.23601 2.98068 0.80112 3.7233 0.480671C4.46593 0.160224 5.26269 0 6.1136 0C6.96451 0 7.76128 0.160224 8.5039 0.480671C9.24653 0.80112 9.89251 1.23601 10.4418 1.78535C10.9912 2.33469 11.4261 2.98068 11.7465 3.7233C12.067 4.46593 12.2272 5.26269 12.2272 6.1136C12.2272 6.96451 12.067 7.76128 11.7465 8.5039C11.4261 9.24653 10.9912 9.89251 10.4418 10.4418C9.89251 10.9912 9.24653 11.4261 8.5039 11.7465C7.76128 12.067 6.96451 12.2272 6.1136 12.2272V12.2272M6.1136 10.6813C7.3944 10.6813 8.47589 10.2403 9.35807 9.35807C10.2403 8.47589 10.6813 7.3944 10.6813 6.1136C10.6813 4.83281 10.2403 3.75131 9.35807 2.86913C8.47589 1.98695 7.3944 1.54585 6.1136 1.54585C4.83281 1.54585 3.75131 1.98695 2.86913 2.86913C1.98695 3.75131 1.54585 4.83281 1.54585 6.1136C1.54585 7.3944 1.98695 8.47589 2.86913 9.35807C3.75131 10.2403 4.83281 10.6813 6.1136 10.6813V10.6813M6.1136 6.1136V6.1136V6.1136V6.1136V6.1136V6.1136V6.1136V6.1136V6.1136V6.1136" fill="var(--fill-0, #EA580C)"/>
</g>
</svg>
