<svg preserveAspectRatio="none" width="100%" height="100%" overflow="visible" style="display: block;" viewBox="0 0 14.1591 14.1591" fill="none" xmlns="http://www.w3.org/2000/svg">
<g id="Container">
<path id="Icon" d="M13.0889 5.12016L12.3057 4.33701L12.7673 3.85673C12.8153 3.80865 12.8394 3.75456 12.8394 3.69446C12.8394 3.63436 12.8153 3.58027 12.7673 3.53218L10.6269 1.39182C10.5788 1.34374 10.5247 1.3197 10.4646 1.3197C10.4045 1.3197 10.3504 1.34374 10.3023 1.39182L9.82207 1.85335L9.02016 1.05145L9.51054 0.542317C9.76439 0.288474 10.0774 0.164677 10.4495 0.170927C10.8216 0.177177 11.1346 0.307224 11.3884 0.561067L13.598 2.77067C13.8519 3.02451 13.9788 3.33436 13.9788 3.70023C13.9788 4.06609 13.8519 4.37594 13.598 4.62978L13.0889 5.12016V5.12016M4.62978 13.598C4.37594 13.8519 4.06609 13.9788 3.70023 13.9788C3.33436 13.9788 3.02451 13.8519 2.77067 13.598L0.589915 11.4173C0.331264 11.1586 0.201938 10.8391 0.201938 10.4588C0.201938 10.0786 0.331264 9.7591 0.589915 9.50044L1.05145 9.03891L1.85335 9.84082L1.38028 10.3023C1.3322 10.3504 1.30816 10.4045 1.30816 10.4646C1.30816 10.5247 1.3322 10.5788 1.38028 10.6269L3.53218 12.7788C3.58027 12.8269 3.63436 12.8509 3.69446 12.8509C3.75456 12.8509 3.80865 12.8269 3.85673 12.7788L4.31826 12.3057L5.12016 13.1076L4.62978 13.598V13.598M12.0014 7.89661L12.962 6.93604C13.0101 6.88796 13.0341 6.83267 13.0341 6.77016C13.0341 6.70766 13.0101 6.65237 12.962 6.60428L7.55479 1.19709C7.50671 1.14901 7.45142 1.12497 7.38891 1.12497C7.32641 1.12497 7.27112 1.14901 7.22303 1.19709L6.26247 2.15766C6.21439 2.20574 6.19034 2.25983 6.19034 2.31993C6.19034 2.38003 6.21439 2.43412 6.26247 2.48221L11.6769 7.89661C11.7249 7.94469 11.779 7.96873 11.8391 7.96873C11.8992 7.96873 11.9533 7.94469 12.0014 7.89661V7.89661M6.91729 12.9807L7.87786 12.0086C7.92594 11.9605 7.94998 11.9065 7.94998 11.8464C7.94998 11.7863 7.92594 11.7322 7.87786 11.6841L2.47499 6.28122C2.42691 6.23314 2.37282 6.2091 2.31272 6.2091C2.25262 6.2091 2.19853 6.23314 2.15045 6.28122L1.17834 7.24178C1.13026 7.28987 1.10622 7.34516 1.10622 7.40766C1.10622 7.47017 1.13026 7.52546 1.17834 7.57354L6.58553 12.9807C6.63362 13.0288 6.68891 13.0529 6.75141 13.0529C6.81392 13.0529 6.86921 13.0288 6.91729 12.9807V12.9807M6.59564 8.80959L8.80238 6.61439L7.54468 5.35669L5.34948 7.56343L6.59564 8.80959V8.80959M7.71198 13.7711C7.45333 14.0297 7.13314 14.1591 6.75141 14.1591C6.36968 14.1591 6.04949 14.0297 5.79084 13.7711L0.387978 8.36823C0.129326 8.10958 0 7.78939 0 7.40766C0 7.02593 0.129326 6.70574 0.387978 6.44709L1.34855 5.47931C1.6072 5.22066 1.92667 5.09133 2.30695 5.09133C2.68724 5.09133 3.00671 5.22066 3.26536 5.47931L4.54758 6.76153L6.75432 4.55479L5.4721 3.28411C5.21345 3.02546 5.08412 2.70407 5.08412 2.31993C5.08412 1.9358 5.21345 1.61441 5.4721 1.35576L6.43988 0.387978C6.69853 0.129326 7.018 0 7.39829 0C7.77857 0 8.09804 0.129326 8.35669 0.387978L13.7711 5.80238C14.0297 6.06103 14.1591 6.3805 14.1591 6.76079C14.1591 7.14107 14.0297 7.46054 13.7711 7.71919L12.8033 8.68697C12.5447 8.94563 12.2233 9.07495 11.8391 9.07495C11.455 9.07495 11.1336 8.94563 10.875 8.68697L9.60428 7.40476L7.39754 9.6115L8.67976 10.8937C8.93841 11.1524 9.06774 11.4718 9.06774 11.8521C9.06774 12.2324 8.93841 12.5519 8.67976 12.8105L7.71198 13.7711V13.7711" fill="var(--fill-0, #78716C)"/>
</g>
</svg>
