<svg preserveAspectRatio="none" width="100%" height="100%" overflow="visible" style="display: block;" viewBox="0 0 22.5 22.5" fill="none" xmlns="http://www.w3.org/2000/svg">
<g id="Container">
<path id="Icon" d="M10.625 16.875H11.875V11.875H16.875V10.625H11.875V5.625H10.625V10.625H5.625V11.875H10.625V16.875V16.875M11.2542 22.5C9.69852 22.5 8.23592 22.2048 6.86639 21.6144C5.49686 21.024 4.30556 20.2227 3.29249 19.2106C2.27942 18.1985 1.4774 17.0083 0.88644 15.6401C0.29548 14.2718 0 12.8099 0 11.2542C0 9.69852 0.295203 8.23592 0.885609 6.86639C1.47601 5.49686 2.27728 4.30556 3.2894 3.29249C4.30153 2.27942 5.49171 1.4774 6.85995 0.88644C8.2282 0.29548 9.69015 0 11.2458 0C12.8015 0 14.2641 0.295203 15.6336 0.885609C17.0032 1.47601 18.1945 2.27728 19.2075 3.2894C20.2206 4.30153 21.0226 5.49171 21.6136 6.85995C22.2045 8.2282 22.5 9.69015 22.5 11.2458C22.5 12.8015 22.2048 14.2641 21.6144 15.6336C21.024 17.0032 20.2227 18.1945 19.2106 19.2075C18.1985 20.2206 17.0083 21.0226 15.6401 21.6136C14.2718 22.2045 12.8099 22.5 11.2542 22.5V22.5M11.25 21.25C14.0417 21.25 16.4063 20.2813 18.3438 18.3438C20.2813 16.4063 21.25 14.0417 21.25 11.25C21.25 8.45834 20.2813 6.09376 18.3438 4.15626C16.4063 2.21876 14.0417 1.25001 11.25 1.25001C8.45834 1.25001 6.09376 2.21876 4.15626 4.15626C2.21876 6.09376 1.25001 8.45834 1.25001 11.25C1.25001 14.0417 2.21876 16.4063 4.15626 18.3438C6.09376 20.2813 8.45834 21.25 11.25 21.25V21.25M11.25 11.25V11.25V11.25V11.25V11.25V11.25V11.25V11.25V11.25V11.25" fill="var(--fill-0, #8C4E35)"/>
</g>
</svg>
