<svg preserveAspectRatio="none" width="100%" height="100%" overflow="visible" style="display: block;" viewBox="0 0 20 21" fill="none" xmlns="http://www.w3.org/2000/svg">
<g id="Frame" clip-path="url(#clip0_159_208)">
<path id="Vector" d="M15.9563 16.0584C16.0023 16.1035 16.0392 16.1578 16.0649 16.2182C16.0905 16.2786 16.1043 16.3438 16.1054 16.4098C16.1065 16.4759 16.0949 16.5416 16.0713 16.6029C16.0478 16.6641 16.0127 16.7198 15.9681 16.7666C15.9236 16.8133 15.8706 16.8501 15.8122 16.8749C15.7539 16.8996 15.6914 16.9118 15.6284 16.9106C15.5655 16.9095 15.5034 16.895 15.4459 16.8681C15.3884 16.8412 15.3367 16.8024 15.2938 16.7541L10 11.1964L4.70625 16.7541C4.61739 16.841 4.49986 16.8883 4.37842 16.8861C4.25699 16.8838 4.14112 16.8322 4.05524 16.742C3.96935 16.6518 3.92016 16.5302 3.91802 16.4027C3.91587 16.2751 3.96095 16.1517 4.04375 16.0584L9.33672 10.5L4.04375 4.94156C3.96095 4.84826 3.91587 4.72485 3.91802 4.59734C3.92016 4.46983 3.96935 4.34818 4.05524 4.258C4.14112 4.16782 4.25699 4.11617 4.37842 4.11392C4.49986 4.11167 4.61739 4.159 4.70625 4.24594L10 9.80355L15.2938 4.24594C15.3826 4.159 15.5001 4.11167 15.6216 4.11392C15.743 4.11617 15.8589 4.16782 15.9448 4.258C16.0306 4.34818 16.0798 4.46983 16.082 4.59734C16.0841 4.72485 16.0391 4.84826 15.9563 4.94156L10.6633 10.5L15.9563 16.0584Z" fill="var(--fill-0, black)"/>
<g id="Frame_2">
<path id="Vector_2" d="M16.6739 16.4602C16.7378 16.527 16.7885 16.6063 16.823 16.6935C16.8576 16.7808 16.8754 16.8743 16.8754 16.9688C16.8754 17.0632 16.8576 17.1567 16.823 17.244C16.7885 17.3312 16.7378 17.4105 16.6739 17.4773C16.61 17.544 16.5342 17.597 16.4507 17.6332C16.3673 17.6693 16.2778 17.6879 16.1875 17.6879C16.0972 17.6879 16.0077 17.6693 15.9243 17.6332C15.8408 17.597 15.765 17.544 15.7011 17.4773L10 11.5161L4.29891 17.4773C4.1699 17.6121 3.99494 17.6879 3.8125 17.6879C3.63006 17.6879 3.4551 17.6121 3.32609 17.4773C3.19709 17.3424 3.12462 17.1595 3.12462 16.9688C3.12462 16.778 3.19709 16.5951 3.32609 16.4602L9.02805 10.5L3.32609 4.53977C3.19709 4.4049 3.12462 4.22198 3.12462 4.03125C3.12462 3.84052 3.19709 3.6576 3.32609 3.52273C3.4551 3.38787 3.63006 3.3121 3.8125 3.3121C3.99494 3.3121 4.1699 3.38787 4.29891 3.52273L10 9.48387L15.7011 3.52273C15.8301 3.38787 16.0051 3.3121 16.1875 3.3121C16.3699 3.3121 16.5449 3.38787 16.6739 3.52273C16.8029 3.6576 16.8754 3.84052 16.8754 4.03125C16.8754 4.22198 16.8029 4.4049 16.6739 4.53977L10.972 10.5L16.6739 16.4602Z" fill="var(--fill-0, #8C4E35)"/>
</g>
</g>
<defs>
<clipPath id="clip0_159_208">
<rect width="20" height="21" fill="white"/>
</clipPath>
</defs>
</svg>
