<svg preserveAspectRatio="none" width="100%" height="100%" overflow="visible" style="display: block;" viewBox="0 0 14 16.2116" fill="none" xmlns="http://www.w3.org/2000/svg">
<g id="Container">
<path id="Icon" d="M1.00001 9.21155C1.00001 10.3603 1.30642 11.4151 1.91923 12.376C2.53205 13.3369 3.35577 14.0577 4.39038 14.5385C4.25833 14.3398 4.16026 14.1333 4.09615 13.9192C4.03205 13.7051 4 13.4859 4 13.2615C4 12.8692 4.07756 12.4974 4.23269 12.1462C4.38782 11.7949 4.60577 11.4789 4.88654 11.1981L7.00001 9.11539L9.1327 11.1981C9.41347 11.4789 9.62822 11.7949 9.77693 12.1462C9.92565 12.4974 10 12.8692 10 13.2615C10 13.4859 9.96796 13.7051 9.90386 13.9192C9.83976 14.1333 9.74168 14.3398 9.60963 14.5385C10.6442 14.0577 11.468 13.3369 12.0808 12.376C12.6936 11.4151 13 10.3603 13 9.21155C13 8.37822 12.8458 7.59072 12.5375 6.84905C12.2292 6.10738 11.7833 5.44488 11.2 4.86155V4.86155C10.8667 5.07822 10.5167 5.24072 10.15 5.34905C9.78334 5.45738 9.40834 5.51155 9.02501 5.51155C7.97885 5.51155 7.07661 5.16988 6.31828 4.48655C5.55994 3.80322 5.12885 2.94873 5.02501 1.92309V1.92309C4.37501 2.46027 3.80001 3.02469 3.30001 3.61636C2.80001 4.20802 2.37917 4.81443 2.03751 5.43559C1.69584 6.05674 1.43751 6.68399 1.26251 7.31732C1.08751 7.95065 1.00001 8.58206 1.00001 9.21155V9.21155M7.00001 10.5115L5.57501 11.9115C5.39167 12.0949 5.25001 12.3032 5.15001 12.5365C5.05001 12.7699 5.00001 13.0115 5.00001 13.2615C5.00001 13.7949 5.19584 14.2532 5.58751 14.6365C5.97917 15.0199 6.45001 15.2115 7.00001 15.2115C7.55001 15.2115 8.02084 15.0199 8.41251 14.6365C8.80417 14.2532 9.00001 13.7949 9.00001 13.2615C9.00001 12.9949 8.95001 12.749 8.85001 12.524C8.75001 12.299 8.60834 12.0949 8.42501 11.9115L7.00001 10.5115V10.5115M6.00001 0V1.51155C6.00001 2.36027 6.292 3.07244 6.87597 3.64808C7.45994 4.22372 8.17629 4.51154 9.02501 4.51154C9.33783 4.51154 9.64263 4.45866 9.93943 4.35289C10.2362 4.24712 10.5167 4.09488 10.7808 3.89616L11.2115 3.55769C12.0859 4.20641 12.7692 5.03077 13.2615 6.03078C13.7539 7.03078 14 8.09103 14 9.21155C14 11.1628 13.3212 12.8173 11.9635 14.175C10.6058 15.5327 8.95129 16.2116 7.00001 16.2116C5.04872 16.2116 3.39423 15.5327 2.03654 14.175C0.678847 12.8173 0 11.1628 0 9.21155C0 7.49744 0.538142 5.82116 1.61443 4.1827C2.69071 2.54423 4.15257 1.15 6.00001 0V0" fill="var(--fill-0, #FB923C)"/>
</g>
</svg>
