<svg preserveAspectRatio="none" width="100%" height="100%" overflow="visible" style="display: block;" viewBox="0 0 14 18" fill="none" xmlns="http://www.w3.org/2000/svg">
<g id="Container">
<path id="Icon" d="M1.61539 18C1.16795 18 0.78686 17.8426 0.472116 17.5279C0.157372 17.2132 0 16.8321 0 16.3846V7.61539C0 7.16796 0.157372 6.78687 0.472116 6.47212C0.78686 6.15738 1.16795 6.00001 1.61539 6.00001H3V4.00001C3 2.8859 3.38814 1.94071 4.16442 1.16443C4.94071 0.388142 5.8859 0 7.00001 0C8.11411 0 9.0593 0.388142 9.83559 1.16443C10.6119 1.94071 11 2.8859 11 4.00001V6.00001H12.3846C12.8321 6.00001 13.2132 6.15738 13.5279 6.47212C13.8426 6.78687 14 7.16796 14 7.61539V16.3846C14 16.8321 13.8426 17.2132 13.5279 17.5279C13.2132 17.8426 12.8321 18 12.3846 18H1.61539V18M1.61539 17H12.3846C12.5641 17 12.7115 16.9423 12.8269 16.8269C12.9423 16.7116 13 16.5641 13 16.3846V7.61539C13 7.43591 12.9423 7.28847 12.8269 7.17309C12.7115 7.0577 12.5641 7.00001 12.3846 7.00001H1.61539C1.4359 7.00001 1.28847 7.0577 1.17308 7.17309C1.0577 7.28847 1.00001 7.43591 1.00001 7.61539V16.3846C1.00001 16.5641 1.0577 16.7116 1.17308 16.8269C1.28847 16.9423 1.4359 17 1.61539 17V17M7.00001 13.5C7.4218 13.5 7.77725 13.3555 8.06635 13.0664C8.35546 12.7773 8.50001 12.4218 8.50001 12C8.50001 11.5782 8.35546 11.2228 8.06635 10.9337C7.77725 10.6446 7.4218 10.5 7.00001 10.5C6.57821 10.5 6.22276 10.6446 5.93366 10.9337C5.64455 11.2228 5.5 11.5782 5.5 12C5.5 12.4218 5.64455 12.7773 5.93366 13.0664C6.22276 13.3555 6.57821 13.5 7.00001 13.5V13.5M4.00001 6.00001H10V4.00001C10 3.16667 9.70834 2.45834 9.12501 1.87501C8.54167 1.29167 7.83334 1.00001 7.00001 1.00001C6.16667 1.00001 5.45834 1.29167 4.87501 1.87501C4.29167 2.45834 4.00001 3.16667 4.00001 4.00001V6.00001V6.00001M1.00001 17C1.00001 17 1.00001 16.9423 1.00001 16.8269C1.00001 16.7116 1.00001 16.5641 1.00001 16.3846V7.61539C1.00001 7.43591 1.00001 7.28847 1.00001 7.17309C1.00001 7.0577 1.00001 7.00001 1.00001 7.00001V7.00001C1.00001 7.00001 1.00001 7.0577 1.00001 7.17309C1.00001 7.28847 1.00001 7.43591 1.00001 7.61539V16.3846C1.00001 16.5641 1.00001 16.7116 1.00001 16.8269C1.00001 16.9423 1.00001 17 1.00001 17V17V17" fill="var(--fill-0, #53433E)"/>
</g>
</svg>
