<svg preserveAspectRatio="none" width="100%" height="100%" overflow="visible" style="display: block;" viewBox="0 0 49.9207 50.045" fill="none" xmlns="http://www.w3.org/2000/svg">
<g id="Container">
<path id="Icon" d="M24.9375 50C21.0208 49.5 17.5208 48.5 14.4375 47C11.3542 45.5 8.73958 43.5417 6.59375 41.125C4.44792 38.7083 2.8125 35.9062 1.6875 32.7188C0.5625 29.5312 0 26 0 22.125C4.58333 22.5833 8.45833 23.4167 11.625 24.625C14.7917 25.8333 17.3646 27.5417 19.3438 29.75C21.3229 31.9583 22.75 34.7188 23.625 38.0312C24.5 41.3438 24.9375 45.3333 24.9375 50V50M24.9375 28.9375C23.9792 27.4792 22.6771 26.0417 21.0312 24.625C19.3854 23.2083 17.4792 21.9167 15.3125 20.75C15.5625 19 15.9792 17.1875 16.5625 15.3125C17.1458 13.4375 17.8542 11.5938 18.6875 9.78125C19.5208 7.96875 20.4688 6.22917 21.5312 4.5625C22.5938 2.89583 23.7292 1.375 24.9375 0C26.1458 1.375 27.2812 2.89583 28.3438 4.5625C29.4062 6.22917 30.3542 7.96875 31.1875 9.78125C32.0208 11.5938 32.7292 13.4375 33.3125 15.3125C33.8958 17.1875 34.3125 19 34.5625 20.75C32.3958 21.875 30.4896 23.1458 28.8438 24.5625C27.1979 25.9792 25.8958 27.4375 24.9375 28.9375V28.9375M29.9375 49C29.8542 46.0833 29.6354 43.3854 29.2812 40.9062C28.9271 38.4271 28.375 36.0833 27.625 33.875C29.5833 30.5 32.2812 27.75 35.7188 25.625C39.1562 23.5 43.875 22.3333 49.875 22.125C49.9167 28.7083 48.1562 34.3854 44.5938 39.1562C41.0312 43.9271 36.1458 47.2083 29.9375 49V49" fill="var(--fill-0, #8C4E35)"/>
</g>
</svg>
