<svg preserveAspectRatio="none" width="100%" height="100%" overflow="visible" style="display: block;" viewBox="0 0 19.3 19.3" fill="none" xmlns="http://www.w3.org/2000/svg">
<g id="Container">
<path id="Icon" d="M11.1461 19.3L9.99616 18.15L13.5462 14.6L4.69998 5.7538L1.14998 9.3038L0 8.15382L1.41923 6.70382L0.26925 5.55384L2.36925 3.45384L0.969251 2.02307L2.02307 0.969251L3.45384 2.36925L5.55384 0.26925L6.70382 1.41923L8.15382 0L9.3038 1.14998L5.7538 4.69998L14.6 13.5462L18.15 9.99616L19.3 11.1461L17.8807 12.5961L19.0307 13.7461L16.9307 15.8461L18.3307 17.2769L17.2769 18.3307L15.8461 16.9307L13.7461 19.0307L12.5961 17.8807L11.1461 19.3V19.3" fill="var(--fill-0, #8C4E35)"/>
</g>
</svg>
