<svg preserveAspectRatio="none" width="100%" height="100%" overflow="visible" style="display: block;" viewBox="0 0 29 27" fill="none" xmlns="http://www.w3.org/2000/svg">
<g id="Container">
<path id="Icon" d="M5.4659 27C4.81997 27 4.28207 26.7924 3.85219 26.3772C3.42231 25.962 3.20737 25.4064 3.20737 24.7104C3.20737 24.2232 3.33656 23.799 3.59493 23.4378C3.8533 23.0766 4.18295 22.8072 4.58387 22.6296L11.894 19.512V12.492C9.81813 15.1296 7.91765 16.989 6.19257 18.0702C4.46749 19.1514 2.4033 19.824 0 20.088V18.18C1.76851 18.06 3.42844 17.5512 4.97978 16.6536C6.53112 15.756 7.95829 14.496 9.26129 12.8736L11.6067 9.9504C11.8651 9.6336 12.1702 9.384 12.5221 9.2016C12.874 9.0192 13.2438 8.928 13.6313 8.928H15.3687C15.7562 8.928 16.126 9.0192 16.4779 9.2016C16.8298 9.384 17.1349 9.6336 17.3933 9.9504L19.7387 12.8736C21.0417 14.496 22.4689 15.756 24.0202 16.6536C25.5716 17.5512 27.2315 18.06 29 18.18V20.088C26.5967 19.824 24.5325 19.1514 22.8074 18.0702C21.0824 16.989 19.1819 15.1296 17.106 12.492V19.512L24.4161 22.6296C24.817 22.8072 25.1467 23.0766 25.4051 23.4378C25.6634 23.799 25.7926 24.2232 25.7926 24.7104C25.7926 25.4064 25.5777 25.962 25.1478 26.3772C24.7179 26.7924 24.18 27 23.5341 27H11.0253V26.712C11.0253 25.9728 11.2214 25.392 11.6134 24.9696C12.0054 24.5472 12.5444 24.336 13.2304 24.336H18.8433C19.1039 24.336 19.3138 24.2502 19.4731 24.0786C19.6324 23.907 19.712 23.6808 19.712 23.4C19.712 23.1192 19.6324 22.893 19.4731 22.7214C19.3138 22.5498 19.1039 22.464 18.8433 22.464H13.2304C12.0811 22.464 11.1367 22.8624 10.3972 23.6592C9.65776 24.456 9.28802 25.4736 9.28802 26.712V27H5.4659ZM14.5 6.336C13.6781 6.336 12.9826 6.0294 12.4135 5.4162C11.8444 4.803 11.5599 4.0536 11.5599 3.168C11.5599 2.2824 11.8444 1.533 12.4135 0.919801C12.9826 0.3066 13.6781 0 14.5 0C15.3219 0 16.0174 0.3066 16.5865 0.919801C17.1556 1.533 17.4401 2.2824 17.4401 3.168C17.4401 4.0536 17.1556 4.803 16.5865 5.4162C16.0174 6.0294 15.3219 6.336 14.5 6.336Z" fill="var(--fill-0, #5B5D74)"/>
</g>
</svg>
