<svg preserveAspectRatio="none" width="100%" height="100%" overflow="visible" style="display: block;" viewBox="0 0 13.0096 11.4086" fill="none" xmlns="http://www.w3.org/2000/svg">
<g id="Container">
<path id="Icon" d="M2.60479 11.4086C2.27787 11.4086 2.00239 11.3014 1.77836 11.087C1.55432 10.8726 1.4423 10.6019 1.4423 10.275C1.4423 10.0461 1.50769 9.83772 1.63846 9.64974C1.76922 9.46176 1.94037 9.32499 2.15191 9.23941L5.1923 8.03364V5.7836C4.40672 6.70572 3.60431 7.37977 2.78509 7.80573C1.96586 8.23169 1.0375 8.47112 0 8.524V7.39182C0.806728 7.36778 1.55096 7.17835 2.23269 6.82355C2.91442 6.46874 3.53653 5.96633 4.09903 5.31633L5.11153 4.13076C5.2423 3.9798 5.39566 3.86418 5.57162 3.78389C5.74758 3.7036 5.93364 3.66346 6.12979 3.66346H6.87979C7.07594 3.66346 7.262 3.7036 7.43796 3.78389C7.61392 3.86418 7.76728 3.9798 7.89805 4.13076L8.91055 5.31633C9.47305 5.96633 10.0952 6.46874 10.7769 6.82355C11.4586 7.17835 12.2029 7.36778 13.0096 7.39182V8.524C11.9721 8.47112 11.0437 8.23169 10.2245 7.80573C9.40527 7.37977 8.60286 6.70572 7.81728 5.7836V8.03364L10.8577 9.23941C11.0692 9.32499 11.2404 9.46176 11.3711 9.64974C11.5019 9.83772 11.5673 10.0461 11.5673 10.275C11.5673 10.6019 11.4553 10.8726 11.2312 11.087C11.0072 11.3014 10.7317 11.4086 10.4048 11.4086H5.00479V11.1634C5.00479 10.8529 5.10022 10.6021 5.29109 10.4113C5.48195 10.2204 5.73267 10.125 6.04324 10.125H8.37979C8.49229 10.125 8.58291 10.0906 8.65166 10.0218C8.72041 9.9531 8.75479 9.86247 8.75479 9.74997C8.75479 9.63747 8.72041 9.54685 8.65166 9.4781C8.58291 9.40935 8.49229 9.37497 8.37979 9.37497H6.04324C5.53267 9.37497 5.10695 9.5454 4.76609 9.88627C4.42522 10.2271 4.25479 10.6529 4.25479 11.1634V11.4086H2.60479V11.4086M6.50479 2.76921C6.12114 2.76921 5.79446 2.63436 5.52475 2.36465C5.25504 2.09494 5.12018 1.76826 5.12018 1.38461C5.12018 1.00096 5.25504 0.674274 5.52475 0.404565C5.79446 0.134855 6.12114 0 6.50479 0C6.88844 0 7.21512 0.134855 7.48483 0.404565C7.75454 0.674274 7.8894 1.00096 7.8894 1.38461C7.8894 1.76826 7.75454 2.09494 7.48483 2.36465C7.21512 2.63436 6.88844 2.76921 6.50479 2.76921V2.76921" fill="var(--fill-0, #8C4E35)"/>
</g>
</svg>
