<svg preserveAspectRatio="none" width="100%" height="100%" overflow="visible" style="display: block;" viewBox="0 0 18 17.0769" fill="none" xmlns="http://www.w3.org/2000/svg">
<g id="Container">
<path id="Icon" d="M3.38462 10.6154H5.58847L10.8577 5.34616C10.9436 5.24745 11.008 5.14392 11.051 5.03559C11.0939 4.92725 11.1154 4.81988 11.1154 4.71347C11.1154 4.60706 11.093 4.50161 11.0481 4.39712C11.0032 4.29263 10.9398 4.19103 10.8577 4.09231L9.93847 3.14231C9.85257 3.05641 9.75321 2.99199 9.64039 2.94904C9.52757 2.90609 9.41603 2.88462 9.30577 2.88462C9.19936 2.88462 9.09199 2.90609 8.98366 2.94904C8.87532 2.99199 8.7718 3.05641 8.67308 3.14231L3.38462 8.41154V10.6154V10.6154M10.2308 4.71347V4.71347L9.30577 3.76924V3.76924L10.2308 4.71347V4.71347M4.26924 9.73077V8.78077L7.71731 5.3327L8.17885 5.82116L8.64808 6.30193L5.21924 9.73077H4.26924V9.73077M8.17885 5.82116L8.64808 6.30193V6.30193L7.71731 5.3327V5.3327L8.17885 5.82116V5.82116M8.80962 10.6154H14.6154V9.61539H9.80962L8.80962 10.6154V10.6154M0 17.0769V1.61539C0 1.15513 0.154167 0.770834 0.462501 0.4625C0.770835 0.154167 1.15513 0 1.61539 0H16.3846C16.8449 0 17.2292 0.154167 17.5375 0.4625C17.8458 0.770834 18 1.15513 18 1.61539V12.3846C18 12.8449 17.8458 13.2292 17.5375 13.5375C17.2292 13.8458 16.8449 14 16.3846 14H3.07693L0 17.0769V17.0769M2.65 13H16.3846C16.5385 13 16.6795 12.9359 16.8077 12.8077C16.9359 12.6795 17 12.5385 17 12.3846V1.61539C17 1.46154 16.9359 1.32052 16.8077 1.19231C16.6795 1.06411 16.5385 1.00001 16.3846 1.00001H1.61539C1.46154 1.00001 1.32052 1.06411 1.19231 1.19231C1.06411 1.32052 1.00001 1.46154 1.00001 1.61539V14.6442L2.65 13V13M1.00001 13V13V1.61539C1.00001 1.46154 1.00001 1.32052 1.00001 1.19231C1.00001 1.06411 1.00001 1.00001 1.00001 1.00001V1.00001C1.00001 1.00001 1.00001 1.06411 1.00001 1.19231C1.00001 1.32052 1.00001 1.46154 1.00001 1.61539V12.3846C1.00001 12.5385 1.00001 12.6795 1.00001 12.8077C1.00001 12.9359 1.00001 13 1.00001 13V13V13" fill="var(--fill-0, #8C4E35)"/>
</g>
</svg>
