<svg preserveAspectRatio="none" width="100%" height="100%" overflow="visible" style="display: block;" viewBox="0 0 7.00001 6.61539" fill="none" xmlns="http://www.w3.org/2000/svg">
<g id="Container">
<path id="Icon" d="M3.5 3.00001C3.08462 3.00001 2.73077 2.85385 2.43846 2.56154C2.14615 2.26924 2 1.91539 2 1.5C2 1.08462 2.14615 0.730771 2.43846 0.438463C2.73077 0.146154 3.08462 0 3.5 0C3.91539 0 4.26924 0.146154 4.56154 0.438463C4.85385 0.730771 5.00001 1.08462 5.00001 1.5C5.00001 1.91539 4.85385 2.26924 4.56154 2.56154C4.26924 2.85385 3.91539 3.00001 3.5 3.00001V3.00001M0 6.61539V5.79231C0 5.5859 0.0600962 5.39279 0.180289 5.21298C0.300481 5.03318 0.46218 4.89359 0.665385 4.79423C1.13718 4.56795 1.6093 4.39824 2.08173 4.2851C2.55417 4.17196 3.02693 4.11539 3.5 4.11539C3.97308 4.11539 4.44584 4.17196 4.91827 4.2851C5.39071 4.39824 5.86283 4.56795 6.33462 4.79423C6.53783 4.89359 6.69952 5.03318 6.81972 5.21298C6.93991 5.39279 7.00001 5.5859 7.00001 5.79231V6.61539H0V6.61539M0.500003 6.11539H6.5V5.79231C6.5 5.68142 6.46427 5.57725 6.39279 5.47981C6.32132 5.38238 6.22244 5.30001 6.09616 5.2327C5.68462 5.03334 5.2603 4.88061 4.82321 4.77452C4.38611 4.66843 3.94505 4.61539 3.5 4.61539C3.05496 4.61539 2.61389 4.66843 2.1768 4.77452C1.7397 4.88061 1.31539 5.03334 0.903848 5.2327C0.777567 5.30001 0.678689 5.38238 0.607214 5.47981C0.53574 5.57725 0.500003 5.68142 0.500003 5.79231V6.11539V6.11539M3.5 2.5C3.775 2.5 4.01042 2.40209 4.20625 2.20625C4.40209 2.01042 4.5 1.775 4.5 1.5C4.5 1.225 4.40209 0.989586 4.20625 0.793753C4.01042 0.59792 3.775 0.500003 3.5 0.500003C3.225 0.500003 2.98959 0.59792 2.79375 0.793753C2.59792 0.989586 2.5 1.225 2.5 1.5C2.5 1.775 2.59792 2.01042 2.79375 2.20625C2.98959 2.40209 3.225 2.5 3.5 2.5V2.5M3.5 1.5V1.5V1.5V1.5V1.5V1.5V1.5V1.5V1.5V1.5M3.5 6.11539V6.11539V6.11539V6.11539V6.11539V6.11539V6.11539V6.11539V6.11539V6.11539V6.11539V6.11539V6.11539" fill="var(--fill-0, #5B5D74)"/>
</g>
</svg>
