<svg preserveAspectRatio="none" width="100%" height="100%" overflow="visible" style="display: block;" viewBox="0 0 7.09616 9.00962" fill="none" xmlns="http://www.w3.org/2000/svg">
<g id="Container">
<path id="Icon" d="M3.54808 4.36539C3.7718 4.36539 3.96234 4.2867 4.11972 4.12933C4.27709 3.97196 4.35577 3.78141 4.35577 3.55769C4.35577 3.33398 4.27709 3.14343 4.11972 2.98606C3.96234 2.82869 3.7718 2.75 3.54808 2.75C3.32436 2.75 3.13382 2.82869 2.97644 2.98606C2.81907 3.14343 2.74039 3.33398 2.74039 3.55769C2.74039 3.78141 2.81907 3.97196 2.97644 4.12933C3.13382 4.2867 3.32436 4.36539 3.54808 4.36539V4.36539M3.54808 8.33846C4.48782 7.52051 5.23077 6.68862 5.77693 5.84279C6.32308 4.99696 6.59616 4.26539 6.59616 3.64808C6.59616 2.73334 6.30657 1.97837 5.72741 1.38318C5.14824 0.787984 4.4218 0.490388 3.54808 0.490388C2.67436 0.490388 1.94792 0.787984 1.36875 1.38318C0.789586 1.97837 0.500003 2.73334 0.500003 3.64808C0.500003 4.26539 0.77308 4.99696 1.31923 5.84279C1.86539 6.68862 2.60834 7.52051 3.54808 8.33846V8.33846M3.54808 9.00962C2.37308 7.97052 1.48798 7.00145 0.892789 6.10241C0.297596 5.20337 0 4.38526 0 3.64808C0 2.59039 0.344391 1.71795 1.03317 1.03077C1.72196 0.34359 2.56026 0 3.54808 0C4.5359 0 5.3742 0.34359 6.06299 1.03077C6.75177 1.71795 7.09616 2.59039 7.09616 3.64808C7.09616 4.38526 6.79856 5.20337 6.20337 6.10241C5.60818 7.00145 4.72308 7.97052 3.54808 9.00962V9.00962M3.54808 3.55769V3.55769V3.55769V3.55769V3.55769V3.55769V3.55769V3.55769V3.55769V3.55769" fill="var(--fill-0, #53433E)"/>
</g>
</svg>
