<svg preserveAspectRatio="none" width="100%" height="100%" overflow="visible" style="display: block;" viewBox="0 0 26 26" fill="none" xmlns="http://www.w3.org/2000/svg">
<g id="Frame">
<path id="Vector" d="M21.125 3.25H18.6875V2.4375C18.6875 2.22201 18.6019 2.01535 18.4495 1.86298C18.2972 1.7106 18.0905 1.625 17.875 1.625C17.6595 1.625 17.4528 1.7106 17.3005 1.86298C17.1481 2.01535 17.0625 2.22201 17.0625 2.4375V3.25H8.9375V2.4375C8.9375 2.22201 8.8519 2.01535 8.69952 1.86298C8.54715 1.7106 8.34049 1.625 8.125 1.625C7.90951 1.625 7.70285 1.7106 7.55048 1.86298C7.3981 2.01535 7.3125 2.22201 7.3125 2.4375V3.25H4.875C4.44402 3.25 4.0307 3.4212 3.72595 3.72595C3.4212 4.0307 3.25 4.44402 3.25 4.875V21.125C3.25 21.556 3.4212 21.9693 3.72595 22.274C4.0307 22.5788 4.44402 22.75 4.875 22.75H21.125C21.556 22.75 21.9693 22.5788 22.274 22.274C22.5788 21.9693 22.75 21.556 22.75 21.125V4.875C22.75 4.44402 22.5788 4.0307 22.274 3.72595C21.9693 3.4212 21.556 3.25 21.125 3.25ZM8.53125 18.6875C8.2902 18.6875 8.05457 18.616 7.85415 18.4821C7.65373 18.3482 7.49752 18.1578 7.40527 17.9351C7.31303 17.7124 7.28889 17.4674 7.33592 17.231C7.38294 16.9946 7.49902 16.7774 7.66946 16.607C7.83991 16.4365 8.05707 16.3204 8.29348 16.2734C8.5299 16.2264 8.77495 16.2505 8.99765 16.3428C9.22034 16.435 9.41069 16.5912 9.5446 16.7916C9.67852 16.9921 9.75 17.2277 9.75 17.4688C9.75 17.792 9.6216 18.102 9.39304 18.3305C9.16448 18.5591 8.85448 18.6875 8.53125 18.6875ZM13 18.6875C12.759 18.6875 12.5233 18.616 12.3229 18.4821C12.1225 18.3482 11.9663 18.1578 11.874 17.9351C11.7818 17.7124 11.7576 17.4674 11.8047 17.231C11.8517 16.9946 11.9678 16.7774 12.1382 16.607C12.3087 16.4365 12.5258 16.3204 12.7622 16.2734C12.9986 16.2264 13.2437 16.2505 13.4664 16.3428C13.6891 16.435 13.8794 16.5912 14.0134 16.7916C14.1473 16.9921 14.2188 17.2277 14.2188 17.4688C14.2188 17.792 14.0903 18.102 13.8618 18.3305C13.6332 18.5591 13.3232 18.6875 13 18.6875ZM13 14.625C12.759 14.625 12.5233 14.5535 12.3229 14.4196C12.1225 14.2857 11.9663 14.0953 11.874 13.8726C11.7818 13.6499 11.7576 13.4049 11.8047 13.1685C11.8517 12.9321 11.9678 12.7149 12.1382 12.5445C12.3087 12.374 12.5258 12.2579 12.7622 12.2109C12.9986 12.1639 13.2437 12.188 13.4664 12.2803C13.6891 12.3725 13.8794 12.5287 14.0134 12.7291C14.1473 12.9296 14.2188 13.1652 14.2188 13.4062C14.2188 13.7295 14.0903 14.0395 13.8618 14.268C13.6332 14.4966 13.3232 14.625 13 14.625ZM17.4688 18.6875C17.2277 18.6875 16.9921 18.616 16.7916 18.4821C16.5912 18.3482 16.435 18.1578 16.3428 17.9351C16.2505 17.7124 16.2264 17.4674 16.2734 17.231C16.3204 16.9946 16.4365 16.7774 16.607 16.607C16.7774 16.4365 16.9946 16.3204 17.231 16.2734C17.4674 16.2264 17.7124 16.2505 17.9351 16.3428C18.1578 16.435 18.3482 16.5912 18.4821 16.7916C18.616 16.9921 18.6875 17.2277 18.6875 17.4688C18.6875 17.792 18.5591 18.102 18.3305 18.3305C18.102 18.5591 17.792 18.6875 17.4688 18.6875ZM17.4688 14.625C17.2277 14.625 16.9921 14.5535 16.7916 14.4196C16.5912 14.2857 16.435 14.0953 16.3428 13.8726C16.2505 13.6499 16.2264 13.4049 16.2734 13.1685C16.3204 12.9321 16.4365 12.7149 16.607 12.5445C16.7774 12.374 16.9946 12.2579 17.231 12.2109C17.4674 12.1639 17.7124 12.188 17.9351 12.2803C18.1578 12.3725 18.3482 12.5287 18.4821 12.7291C18.616 12.9296 18.6875 13.1652 18.6875 13.4062C18.6875 13.7295 18.5591 14.0395 18.3305 14.268C18.102 14.4966 17.792 14.625 17.4688 14.625ZM21.125 8.125H4.875V4.875H7.3125V5.6875C7.3125 5.90299 7.3981 6.10965 7.55048 6.26202C7.70285 6.4144 7.90951 6.5 8.125 6.5C8.34049 6.5 8.54715 6.4144 8.69952 6.26202C8.8519 6.10965 8.9375 5.90299 8.9375 5.6875V4.875H17.0625V5.6875C17.0625 5.90299 17.1481 6.10965 17.3005 6.26202C17.4528 6.4144 17.6595 6.5 17.875 6.5C18.0905 6.5 18.2972 6.4144 18.4495 6.26202C18.6019 6.10965 18.6875 5.90299 18.6875 5.6875V4.875H21.125V8.125Z" fill="var(--fill-0, #F8F7F7)"/>
</g>
</svg>
