<svg preserveAspectRatio="none" width="100%" height="100%" overflow="visible" style="display: block;" viewBox="0 0 14.475 14.475" fill="none" xmlns="http://www.w3.org/2000/svg">
<g id="Container">
<path id="Icon" d="M8.35961 14.475L7.49712 13.6125L10.1596 10.95L3.52499 4.31535L0.862486 6.97785L0 6.11537L1.06442 5.02787L0.201938 4.16538L1.77694 2.59038L0.726938 1.5173L1.5173 0.726938L2.59038 1.77694L4.16538 0.201938L5.02787 1.06442L6.11537 0L6.97785 0.862486L4.31535 3.52499L10.95 10.1596L13.6125 7.49712L14.475 8.35961L13.4105 9.44711L14.273 10.3096L12.698 11.8846L13.748 12.9577L12.9577 13.748L11.8846 12.698L10.3096 14.273L9.44711 13.4105L8.35961 14.475V14.475" fill="var(--fill-0, #78716C)"/>
</g>
</svg>
