<svg preserveAspectRatio="none" width="100%" height="100%" overflow="visible" style="display: block;" viewBox="0 0 11.3366 10.7741" fill="none" xmlns="http://www.w3.org/2000/svg">
<path id="Icon" d="M3.30578 9.20049L5.66828 7.77549L8.03078 9.21924L7.41203 6.51924L9.49328 4.71924L6.75578 4.47549L5.66828 1.92549L4.58078 4.45674L1.84328 4.70049L3.92453 6.51924L3.30578 9.20049V9.20049M2.16202 10.7741L3.09231 6.78896L0 4.11059L4.07308 3.75722L5.66828 0L7.26348 3.75722L11.3366 4.11059L8.24425 6.78896L9.17454 10.7741L5.66828 8.65819L2.16202 10.7741V10.7741M5.66828 5.76924V5.76924V5.76924V5.76924V5.76924V5.76924V5.76924V5.76924V5.76924V5.76924V5.76924V5.76924" fill="var(--fill-0, #D8C2BA)"/>
</svg>
